# xmcd
#
# Track frame offsets:
#	150
#	20742
#	36015
#	57727
#	77905
#	96242
#	114907
#	130527
#	149327
#	168955
#
# Disc length: 2503 seconds
#
# Revision: 0
# Processed by: cddbd v1.4PL0 Copyright (c) Steve Scherf et al.
# Submitted via: audiograbber 1.80
#
DISCID=8309c50a
DTITLE=Maja Blagdan - Bijele Ruze
DYEAR=1900
DGENRE=
TTITLE0=Bijele Ruze
TTITLE1=Cura Za Sve
TTITLE2=Tajno
TTITLE3=Rajski Cvite
TTITLE4=Ja vjerujem u te
TTITLE5=Ti si Covjek moj
TTITLE6=Leti Golubice
TTITLE7=Marinero
TTITLE8=Sveta Majko
TTITLE9=Andele Moj
EXTD=
EXTT0=
EXTT1=
EXTT2=
EXTT3=
EXTT4=
EXTT5=
EXTT6=
EXTT7=
EXTT8=
EXTT9=
PLAYORDER=
